/* XPM */
static char * north_mm_xpm[] = {
"16 16 3 1",
" 	c None",
".	c #FFFFFF",
"+	c #383333",
" ...        ... ",
".+++.      .+++.",
".+++.      .+++.",
".++++.     .+++.",
".+++++.    .+++.",
".++++++.   .+++.",
".+++++++.  .+++.",
".+++..+++. .+++.",
".+++. .+++..+++.",
".+++.  .+++++++.",
".+++.   .++++++.",
".+++.    .+++++.",
".+++.     .++++.",
".+++.      .+++.",
".+++.      .+++.",
" ...        ... "};
