/* XPM */
static char * white_wall_xpm[] = {
"64 64 57 1",
" 	c #F9FAFB",
".	c #F8F9FA",
"+	c #F9F9F9",
"@	c #FAFAFA",
"#	c #FBFBFB",
"$	c #F7F7F7",
"%	c #F9FAFA",
"&	c #F8FAF9",
"*	c #F7F9F8",
"=	c #F9FAFC",
"-	c #FAFBFD",
";	c #F8F9F9",
">	c #FAFAFB",
",	c #FAFBFC",
"'	c #FAFBFA",
")	c #F9FBFA",
"!	c #F8F8F8",
"~	c #FAFBFB",
"{	c #F7F8FA",
"]	c #F6F7F9",
"^	c #F7F8F9",
"/	c #F8F9FB",
"(	c #F8F8F9",
"_	c #F9FAF9",
":	c #F5F5F7",
"<	c #F4F5F6",
"[	c #F8F8FA",
"}	c #F7F8F7",
"|	c #F8F9F8",
"1	c #F9F9FA",
"2	c #F7F8F8",
"3	c #F6F6F6",
"4	c #F5F5F5",
"5	c #F6F7F7",
"6	c #F4F6F5",
"7	c #F5F7F6",
"8	c #FCFCFC",
"9	c #FBFCFB",
"0	c #F6F8F7",
"a	c #F4F4F4",
"b	c #F6F7F6",
"c	c #F5F6F6",
"d	c #F5F6F5",
"e	c #FBFDFC",
"f	c #F7FAF8",
"g	c #FDFDFD",
"h	c #FAFCFB",
"i	c #FBFCFC",
"j	c #F8FAFA",
"k	c #F4F5F5",
"l	c #F6F7F8",
"m	c #F8FAFB",
"n	c #F3F5F4",
"o	c #F2F4F3",
"p	c #F5F6F8",
"q	c #F4F5F7",
"r	c #F7F9FA",
" ..++@@@###@+$@%&*+@++@=- &&@@@&&;+@@#>=,== #@')'@@+!+&*~&*!++@@",
"{]^$!+!+!!@+!!+%**!!@++{{ &&++%*&!!++!./{/{(+@_&&+++!+&*)**!!++$",
":<(+++++@@@@@!!%%%+!@++([^&}!$!|;|!!!+1.1. 1!!;;2+++++_&|;%+++@+",
"!+@++++@+++!+!!!!@+++!+@++++@+++!+!+!!+!+++@+!++@++++@+++!+++++@",
"++++@+$$!!+!!!!!+@@#+@+@@+++@#@++!+@!+!!++!!!++!++$@+++!+!!+!+!+",
"@+!+!+++++!!+++|}&+++@+++@!++!+++++@@@+@@@++!!!$++++!+@@@+@!+@++",
"3$!333!+@!$4!$$567+!3!!!!!$+!$$$$!$!!+!3$!+!43!3+!!3$+++!!+$!4$!",
"#@##@@+@++#@@%@~;|@@@@@'%'###@@#@@@+@#88#@%_;%@'+%%@@@@@##989~#@",
"#+++++!!!!+++&&%++!+@!+*&_++++@++!+@+$+@@&*******&*;!!!!'*0*)|!!",
"+++++++@+@#+~))++!@++++&00!!##@+@@++++@+@&&&**&&)&&###+@)&)&*|++",
"@+@+@++%;&%+++%%&;@+++@~++++@++;|_++++_*&_+_;!|+#@+@@@+@+;%%__@+",
"@+++@##|&&;$43$_&*!+!4+@@@!!$+_&*;!+!+;&&+!!+++!!++@+++@@+!!+!$@",
"++@++@+%&&+++++%%;$++!!+@@++!!_;_@+@@@_&&@+!!!+++!+!!!+!++++@@++",
"!$!333!+$$$$+@+!!!!$$+!!!!!$+!!!+##@@@@@+@#+!!!!!33a4!$!!++!$$$!",
"@+@@+@@@@++@@+@!$$$+@@@@@++@@+++++++@@@@@@#@@@+++++@!+++@+@@@+!+",
"5b5$!|*|||%*2*|}cb33!$$|}022|||}02!!!!!};*&|*&5dbbb!3$52;2|!!+3$",
"e))@#)))&*;0*)))%&@@@@#)&&&*))~)&@@@@@~))&))))&&)&&#8')&&))+++++",
")%%$!&_)070*&%*2&;@+++@&***&&0&**%!!++%&*&&)&&;&&&&;!@&**&&$!!++",
"077f*!++**e&)g#;**!!;&&&&_+!!$|*75$+!!**;**0*&***!$*&&*0!$!00+$!",
"&0*0&@!+&)h&&+!)22!+_*&&&%+++!%)*!++!!;&%&&&&&**|+@)&&**_!+**'++",
"25||5$$!;__;_!$2||$4b2}|2$!!++!}}!3$$++!}||__;%__!!!;;bb!++|};!!",
"+!+@!!!++++++++!!++++++@++++@+@++@++++@+!+++++@@@++!!!!!@+@+!@!!",
"@$$+3$3$!!!$!!!+3$3$+$!+++!!!++$$!!!3$$!+$$$$$!3$$!3aaa4+!!!!+!!",
"@@@!!!@@++++@@@##@@#8#@##@++#++@+#@@@@#@@!@@+@@@@@@@@@$$++@++@@@",
"!!+$$!!+$!!!!!!!!+!!!!!@3$+$@!!++@!!!!@!!$!+!$!$!$3$!!343$+$3$$+",
"@++!!+!!!!!$$$!+!+++@+++@@++++@|!|+%++++++!!!!@+++++!++++!!+++2}",
"@++!!@+!!$+$!$!+!+++@@+++++!!!%&&)&'++++++!!!+@++++@++&*|!!++|2*",
"++++@@@@$4a!+$$$!!+++++!$$$3@++*0)&&++++!!+!3$$!!+@@@;**!!+!!***",
"_&'!!+!+&&+!!++!!+++@!++!++!++%|;@+%+++!+!!!!!!$@@@++++;++++++++",
"&*5!!+$$0*%+++++$!!@+!333+@+!!++++#@!!$!+!$$$!+$3$3+!!!!+!!+@+!!",
")&%@@@+@))@@@@++%%+@@+@@##@@@+@++@+@@#'%+@@+++%|+@@@++!+@+@++@@+",
"**_!!+!_**!!@++20&!3!!!+$!+!+$!!!+$$!!&**!+!!!*&;!!!!!a4!!+!!$$+",
")*|!!+!;&&%++@@;*&+@++++++3+!+@+!!@@@#'))@+@@@i)%+!@+++++!!!!@+!",
";2!!!@!!!!@!!+++$2!!+!++++$$!++@!+!+!!++%++!++~!|&|@+++!+$!+!@+!",
"$!+43!!+!!$++!3+++++++++!!!$@+++!++!+++++++@++!++*0!!!$$!!!!!+++",
"$!+!$!!!!+;!@$$!|_@+++@@+!$$+++!!+$!!!+!++@@++++%2};!+!!+!@+@__@",
"+!$!++3b67;3+$$|00$+!!+@+!!@@+!3+!!!!!+!!@+++!$!!!$!$3$!@$!!+_&0",
"+++@@++_&&@@@!+;&&++@++++@@+++$++++@+++!+@#@++@++++#@+++@!+++%&&",
"!!+a43$+;|!!++!!;|+!$$!!$!!++$43$+!+!!+!!!!!3$3$!$!$$$!$$$!!$}22",
"@+@@+@+@@+@+@@@@@@++++!@@+@#@#@@+@@+@+@@@@@@@@+@@#@#@##@@@@###@@",
"!+++!+!!!!+!!!++++!@++!!+++++@@!+!+@+!!!+!!+!++!!+$++@@++!!!!!!!",
"!!++!!$++!$$++++@+@+++++!+++@+++!@+++@@@+++++++++++!!+++@!+!!!!+",
"++@++!$@!!!!+++!+++++++++++!@++!!@++++@+@++@+++++++!++!!++@+!+!+",
"8!++!5c}}2+++@@_2;++!+++++@+!!+!!$3+++#%_@+!+!+||~~@!!}}@+++++}$",
"+!+++&0***'@@++_*;+++++++@@+@@@++!!+@+%)h++++!_&&&)@+_)&_++++%*&",
"$4$+!**)))!!@!$**&+$!!!+!!!+@++++33$$$2**!++!!*&&00!++*0}$+$+'**",
"8##@@@++@+@@+++++!+!!$$!+@!+@@@@@+@@++@@+@@@+@++@@+@@#~++!+@@@+@",
"#+++!+!!!!!!!$!!3$$3!433$!4$$!+!!!!!$4$!@!!!!!$3$!!+$!!+++!+!+33",
"_;_!++!@+++++!!!+++++@@@!+@@#@+++@@@@@@~~@%%@@@%%+++++!!++++!!!+",
"**_!+++@+!$!+!!!!+!!!!!@+!!!@+++!@++++_;*&&%++&&_++++++++++!+!!+",
"%**!+#@@@++++!!+++!!+++!!+!!+@@$++++++&&&*0d!!&&&@##@++@@++++!3$",
"&&;+@@!!++++@!+_&&+!@+!@@@+@@+#+++++++&&&&);++&&&&&'@@++@+@!+@+!",
")&;$+!!@!++++@+|&&+!3$!+@+@!!!+!!+!+++_&&&&;++&*&00$!+++!!+$!!!!",
"&&%++%++%+++++!_jj++!$;+!+++@+%@+@+++@~)&&*2!@&*&*&++@@+@@@+++++",
"*0c3$*70**+$$$$(/.!!}7000|!!!!+**!$+!$**&0);!@}00*0+!++$!!!!!!$!",
"))%++&))&&++@@@ =-@@'&)~)'++###hh@@@@+%)&))~@@hh)&)_!+!++@@@#@#@",
";2|$!!|_$5$!+++;;;+++!;+|;+$++++;|!$!!+!;2!+++&&&k}$3$$!!!+!!!!!",
"!3$$!+@@+@+$!!!+++!!++++++!+!@+!!+++!333+!$!!!;**!!@+!!++!+!++++",
"+!$$+@+++++++!!+++++@+++++!!!+@!+++@!!!3++!!$!&*2!!@+++!+!!!!+++",
"!$!!+!!+$$!+@$!!!$+!!!+!!!!!@@@@#+!++@+$!+@+!!!!+!!++++!!!++!+++",
"++++++!+!+@+@+++++++!!!+++++@+@+@@@@@@@!++++++++@@!+@@@@@@@+++++",
"';;++(l2|2%++~'*0}22_bb2|;;|}!;2}}2_*2;|%|;_;;_}2|2+++__|22!+!55",
"&&_++.{m))'@%)h))h&&&))))))&@@%)))&&*&&0&))&*)&&%)&@@@)))))@@%&h",
"no}$$pqr**!!+*&***0***0*0000%+!**&000&&60**;0000&7*!!_&***&$32*)"};
